<svg width="133" height="133" viewBox="0 0 133 133" fill="none" xmlns="http://www.w3.org/2000/svg">
<path d="M72.4067 23.9874L68.8836 30.4975C68.6587 30.2666 68.3737 30.1216 68.0791 30.0648L71.6027 23.5547C71.8978 23.6115 72.1818 23.7565 72.4067 23.9874Z" fill="#26603E"/>
<path d="M71.6853 24.9115L68.1613 31.4215C68.3442 31.0854 68.3691 30.667 68.1936 30.2753C68.1613 30.201 68.1225 30.1308 68.0791 30.0648L71.6022 23.5547C71.6461 23.6207 71.6849 23.6909 71.7177 23.7648C71.8927 24.1573 71.8678 24.5753 71.6853 24.9115Z" fill="#26603E"/>
<path d="M71.6853 24.9115L68.1613 31.4215C68.3442 31.0854 68.3691 30.667 68.1936 30.2753C68.1613 30.201 68.1225 30.1308 68.0791 30.0648L71.6022 23.5547C71.6461 23.6207 71.6849 23.6909 71.7177 23.7648C71.8927 24.1573 71.8678 24.5753 71.6853 24.9115Z" fill="#26603E"/>
<path d="M75.6003 28.0524L72.0762 34.5625C70.2997 31.9653 68.9281 30.5508 68.8833 30.5023L72.4064 23.9922C72.4512 24.0407 73.8232 25.4556 75.6003 28.0524Z" fill="#26603E"/>
<path d="M71.6025 23.559L68.0789 30.0691C67.8139 29.6655 67.359 29.4156 66.8889 29.3948C66.706 29.3865 66.5213 29.4128 66.3444 29.478C65.6351 29.7283 64.6376 30.1559 63.4941 30.9913L67.0177 24.4812C68.1611 23.6458 69.1591 23.2182 69.868 22.9679C70.0449 22.9023 70.2296 22.876 70.4124 22.8843C70.883 22.9055 71.3365 23.1554 71.6025 23.559Z" fill="#26603E"/>
<path d="M67.0183 24.4785L63.4947 30.9886C60.3609 30.1939 57.579 29.7833 55.1166 29.6729C54.8806 29.6628 54.6474 29.6545 54.4174 29.6494C45.9678 29.4827 41.3548 32.7763 38.5872 36.3506C37.9822 37.1376 37.4756 37.942 37.0508 38.7262L40.5748 32.2166C40.9992 31.432 41.5067 30.6275 42.1112 29.8406C44.8784 26.2662 49.4918 22.9726 57.9406 23.1388C58.1715 23.1439 58.4042 23.1522 58.6407 23.1624C61.1025 23.2732 63.884 23.6838 67.0183 24.4785Z" fill="url(#paint0_linear_1440_31372)"/>
<path d="M71.6851 24.9141L68.1611 31.4241C68.0189 31.6874 67.781 31.9003 67.4689 32.0129C67.2818 32.0831 67.0777 32.1616 66.857 32.2577C65.9578 32.6512 64.7738 33.3499 63.2701 35.0645C63.0032 35.3684 62.6148 35.5208 62.2177 35.5139C62.2075 35.5139 62.1969 35.513 62.1867 35.513C61.8746 35.4986 61.5573 35.3841 61.2954 35.1666C60.7634 34.7311 60.618 34.0241 60.9112 33.4824L64.4353 26.9723C64.142 27.514 64.287 28.2211 64.819 28.6565C65.0804 28.8736 65.3986 28.9881 65.7108 29.0029C65.7205 29.0029 65.7316 29.0034 65.7417 29.0034C66.1389 29.0107 66.5268 28.8579 66.7937 28.554C68.2973 26.8393 69.4814 26.1406 70.381 25.7472C70.6018 25.6506 70.8049 25.5721 70.9915 25.5019C71.3051 25.3906 71.5434 25.1773 71.6851 24.9141Z" fill="url(#paint1_linear_1440_31372)"/>
<path d="M96.6802 51.1454L93.1567 57.6555C90.3364 50.044 85.2464 44.2996 80.2303 40.1554C77.3186 37.7512 74.4369 35.9008 72.0762 34.5648L75.6002 28.0547C77.961 29.3912 80.8422 31.2411 83.7543 33.6453C88.77 37.7891 93.86 43.5335 96.6802 51.1454Z" fill="url(#paint2_linear_1440_31372)"/>
<path d="M82.4167 44.5703L78.8932 51.0804C78.7117 51.4152 78.3792 51.6636 77.958 51.7348L81.482 45.2247C81.9027 45.1536 82.2357 44.9051 82.4167 44.5703Z" fill="#4353FF"/>
<path d="M65.1436 30.7713L61.6195 37.2814C61.4537 37.5862 61.0921 37.7377 60.6784 37.7192C60.4239 37.7081 60.1501 37.6324 59.8882 37.4888C59.1969 37.1106 58.8588 36.4077 59.1272 35.9163L62.6512 29.4062C62.3829 29.8976 62.7205 30.6 63.4118 30.9787C63.6736 31.1228 63.9479 31.1981 64.2019 31.2096C64.6162 31.2276 64.9768 31.0761 65.1436 30.7713Z" fill="url(#paint3_linear_1440_31372)"/>
<path d="M100.684 54.8743L97.1606 61.3844C97.1029 61.2768 97.0313 61.1733 96.9426 61.0778C95.6717 59.6979 94.4027 58.5674 93.1567 57.6507L96.6803 51.1406C97.9263 52.0573 99.1953 53.1878 100.466 54.5677C100.554 54.6637 100.627 54.7667 100.684 54.8743Z" fill="#26603E"/>
<path d="M60.7809 33.9567L57.2573 40.4668C57.2786 40.4081 57.304 40.3518 57.3326 40.2991L60.8562 33.7891C60.8275 33.8422 60.8021 33.898 60.7809 33.9567Z" fill="#26603E"/>
<path d="M100.696 56.1166L97.1724 62.6266C97.2615 62.4622 97.3109 62.2807 97.3211 62.096L100.845 55.5859C100.834 55.7711 100.785 55.9522 100.696 56.1166Z" fill="#26603E"/>
<path d="M81.4819 45.2228L77.9578 51.7329C77.8678 51.7491 77.7777 51.756 77.6872 51.7518C77.0107 51.7218 76.4214 51.2679 76.2672 50.6287C73.6871 39.8142 67.6088 33.0561 66.9378 32.3449C66.8934 32.2978 66.8833 32.284 66.8828 32.2835L70.4064 25.7734C70.4069 25.7734 70.4175 25.7878 70.4618 25.8349C71.1319 26.5456 77.2102 33.3041 79.7907 44.1187C79.945 44.7578 80.5338 45.2118 81.2103 45.2418C81.3013 45.2459 81.3918 45.239 81.4819 45.2228Z" fill="url(#paint4_linear_1440_31372)"/>
<path d="M100.696 56.1172L97.1721 62.6273C97.1001 62.7607 97.0017 62.8831 96.8775 62.9875C96.6198 63.2054 96.2924 63.3052 95.9673 63.2978L99.4913 56.7877C99.8164 56.7951 100.143 56.6954 100.401 56.4774C100.525 56.373 100.623 56.2506 100.696 56.1172Z" fill="#26603E"/>
<path d="M82.9646 50.5912L79.441 57.1013C79.6193 56.3869 79.1547 55.6332 78.3964 55.4189C78.2819 55.3861 78.1673 55.3677 78.0556 55.3631C77.5338 55.3395 77.0549 55.5995 76.8193 56.0345L80.3434 49.5245C80.5789 49.0894 81.0573 48.8299 81.5792 48.853C81.6914 48.8576 81.8055 48.8761 81.92 48.9089C82.6778 49.1231 83.1433 49.8768 82.9646 50.5912Z" fill="#26603E"/>
<path d="M99.4915 56.7857L95.9675 63.2958C95.5477 63.2773 95.1686 63.1111 94.8919 62.81C94.7816 62.6913 94.6712 62.5754 94.5617 62.4613C90.3422 58.0714 86.6538 56.9492 83.8876 56.8255C83.8188 56.8227 83.7504 56.8199 83.683 56.8181C81.6002 56.7663 80.0241 57.3339 79.3032 57.6576L82.8273 51.1476C83.5481 50.8238 85.1247 50.2563 87.2061 50.308C87.274 50.3098 87.3423 50.3131 87.4111 50.3158C90.1778 50.4396 93.8663 51.5618 98.0853 55.9517C98.1948 56.0658 98.3056 56.1817 98.4155 56.3004C98.6921 56.601 99.0717 56.7673 99.4915 56.7857Z" fill="url(#paint5_linear_1440_31372)"/>
<path d="M82.8268 51.1475L79.3027 57.6575L79.4413 57.1038L82.9649 50.5938L82.8268 51.1475Z" fill="#255D3C"/>
<path d="M80.2306 49.8226L76.707 56.3327C76.7334 56.2284 76.7712 56.1309 76.8197 56.0413L80.3438 49.5312C80.2953 49.6213 80.2569 49.7183 80.2306 49.8226Z" fill="#26603E"/>
<path d="M80.047 50.556L76.5234 57.066L76.7068 56.3304L80.2304 49.8203L80.047 50.556Z" fill="#255D3C"/>
<path d="M62.7424 44.3289L59.2188 50.839C59.3439 50.5693 59.374 50.2525 59.2816 49.9348C59.1809 49.5981 59.1047 49.2467 59.0493 48.8851L62.5734 42.375C62.6288 42.7366 62.7045 43.0885 62.8052 43.4247C62.8975 43.7424 62.8675 44.0592 62.7424 44.3289Z" fill="#26603E"/>
<path d="M62.4367 43.4155L58.9132 49.9255C58.7178 49.3386 58.1581 48.9442 57.5601 48.9179C57.4206 48.9114 57.2802 48.9253 57.1407 48.9608C56.7847 49.0537 56.5071 49.2735 56.3423 49.5575L59.8659 43.0474C60.0312 42.7634 60.3087 42.5436 60.6648 42.4508C60.8038 42.4147 60.9446 42.4014 61.0841 42.4078C61.6826 42.4341 62.2414 42.8285 62.4367 43.4155Z" fill="#26603E"/>
<path d="M62.4367 43.4155L58.9132 49.9255C58.7178 49.3386 58.1581 48.9442 57.5601 48.9179C57.4206 48.9114 57.2802 48.9253 57.1407 48.9608C56.7847 49.0537 56.5071 49.2735 56.3423 49.5575L59.8659 43.0474C60.0312 42.7634 60.3087 42.5436 60.6648 42.4508C60.8038 42.4147 60.9446 42.4014 61.0841 42.4078C61.6826 42.4341 62.2414 42.8285 62.4367 43.4155Z" fill="#26603E"/>
<path d="M62.7424 44.3289L59.2188 50.839C59.3439 50.5693 59.374 50.2525 59.2816 49.9348C59.1809 49.5981 59.1047 49.2467 59.0493 48.8851L62.5734 42.375C62.6288 42.7366 62.7045 43.0885 62.8052 43.4247C62.8975 43.7424 62.8675 44.0592 62.7424 44.3289Z" fill="#26603E"/>
<path d="M62.7424 44.3353L59.2193 50.8454L58.9131 49.9315L62.4367 43.4219L62.7424 44.3353Z" fill="#255D3C"/>
<path d="M62.4367 43.4155L58.9132 49.9255C58.7178 49.3386 58.1581 48.9442 57.5601 48.9179C57.4206 48.9114 57.2802 48.9253 57.1407 48.9608C56.7847 49.0537 56.5071 49.2735 56.3423 49.5575L59.8659 43.0474C60.0312 42.7634 60.3087 42.5436 60.6648 42.4508C60.8038 42.4147 60.9446 42.4014 61.0841 42.4078C61.6826 42.4341 62.2414 42.8285 62.4367 43.4155Z" fill="#26603E"/>
<path d="M59.8656 43.053L56.342 49.563C56.2145 48.9045 56.1485 48.2464 56.1259 47.6045C56.1236 47.5362 56.1212 47.4669 56.1203 47.3986C56.0427 43.7549 57.237 40.5514 57.2573 40.471L60.7809 33.9609C60.7605 34.0418 59.5668 37.2448 59.6434 40.8885C59.6453 40.9568 59.6471 41.0261 59.6494 41.0944C59.6725 41.7364 59.7386 42.394 59.8656 43.053Z" fill="#4353FF"/>
<path d="M59.8657 43.0469L56.3421 49.5569C56.3352 49.568 56.3292 49.5791 56.3228 49.5911L59.8468 43.081C59.8528 43.069 59.8588 43.058 59.8657 43.0469Z" fill="#26603E"/>
<path d="M80.0472 50.5578L76.5236 57.0679C71.7033 52.4267 67.3115 51.2242 64.0419 51.0782C63.9491 51.0741 63.8572 51.0704 63.7653 51.0681C61.8645 51.0247 60.3636 51.3641 59.4839 51.6347L63.0075 45.1246C63.8877 44.8545 65.3881 44.5151 67.2893 44.5585C67.3808 44.5608 67.4727 44.5645 67.5664 44.5686C70.8351 44.7146 75.2268 45.9166 80.0472 50.5578Z" fill="url(#paint6_linear_1440_31372)"/>
<path d="M63.0074 45.1183L59.4839 51.6283L59.2192 50.8382L62.7424 44.3281L63.0074 45.1183Z" fill="#255D3C"/>
<path d="M59.7648 44.1088L56.2412 50.6189C56.1211 50.2587 56.1609 49.8948 56.3225 49.596L59.8465 43.0859C59.6844 43.3847 59.6447 43.7486 59.7648 44.1088Z" fill="#26603E"/>
<path d="M59.9398 44.6312L56.4158 51.1413L56.2412 50.6194L59.7648 44.1094L59.9398 44.6312Z" fill="#255D3C"/>
<path d="M39.0154 35.9844L35.4914 42.4944C33.7582 42.8717 32.7293 43.3118 32.6665 43.3345L36.1901 36.8244C36.2529 36.8013 37.2822 36.3617 39.0154 35.9844Z" fill="#26603E"/>
<path d="M36.19 36.8281L32.6665 43.3382C32.527 43.3987 32.4041 43.479 32.2993 43.5746L35.8234 37.0646C35.9277 36.9694 36.051 36.8886 36.19 36.8281Z" fill="#26603E"/>
<path d="M32.2998 43.5705C32.5275 42.3855 33.1167 40.0031 34.5382 37.3773L38.0613 30.8672C36.6403 33.493 36.0511 35.8755 35.8238 37.0605C34.7658 39.0139 33.3569 41.6176 32.2998 43.5705Z" fill="url(#paint7_linear_1440_31372)"/>
<path d="M35.8231 37.0609L32.0127 44.1727C32.2399 42.9882 33.1164 40.0031 34.5374 37.3773L38.061 30.8672C36.6395 33.493 36.0507 35.8755 35.8231 37.0609Z" fill="url(#paint8_linear_1440_31372)"/>
<path d="M59.9401 44.6318L56.4161 51.1419C51.1266 46.2565 45.8662 44.8664 41.7048 44.6799C41.5594 44.6729 41.4148 44.6679 41.2716 44.6642C39.0481 44.6129 37.1713 44.9186 35.8718 45.2294C34.9186 45.4571 34.2758 45.6875 34.0352 45.7813L37.5592 39.2712C37.7993 39.1774 38.4422 38.947 39.3958 38.7193C40.6949 38.409 42.5716 38.1028 44.7957 38.1541C44.9384 38.1578 45.0825 38.1629 45.2289 38.1698C49.3893 38.3564 54.6502 39.7464 59.9401 44.6318Z" fill="url(#paint9_linear_1440_31372)"/>
<path d="M37.5592 39.2725L34.0352 45.7826C33.9562 45.8135 33.9354 45.8227 33.9345 45.8232C33.7359 45.9086 33.5258 45.9433 33.318 45.9345C33.1647 45.9276 33.0141 45.8966 32.87 45.844C32.5246 45.7184 32.3108 45.4745 32.1353 45.1286C31.9247 44.7181 31.94 44.2683 32.1344 43.909L35.5693 37.3906C35.3744 37.7504 35.3592 38.2002 35.5697 38.6107C35.7457 38.9566 36.0477 39.2078 36.3936 39.3339C36.5372 39.3865 36.6882 39.4175 36.8411 39.4249C37.0489 39.4337 37.259 39.3986 37.4576 39.3131C37.4595 39.3127 37.4798 39.3034 37.5592 39.2725Z" fill="url(#paint10_linear_1440_31372)"/>
<path d="M100.641 57.4453L97.1174 62.7321L81.5601 77.8973L85.0836 72.611L100.641 57.4453Z" fill="url(#paint11_linear_1440_31372)"/>
<path d="M85.0835 72.611L81.5599 79.121L78.2192 78.4163L81.7428 71.9062L85.0835 72.611Z" fill="#255D3C"/>
<path d="M77.8541 71.087L74.3306 77.597L71.5454 77.0101L75.0695 70.5L77.8541 71.087Z" fill="#255D3C"/>
<path d="M75.0695 70.4982L71.5454 77.0083L76.5237 57.0648L80.0473 50.5547L75.0695 70.4982Z" fill="url(#paint12_linear_1440_31372)"/>
<path d="M71.2351 69.6902L67.7111 76.2003L64.5884 75.5418L68.112 69.0312L71.2351 69.6902Z" fill="#255D3C"/>
<path d="M68.1122 69.0268L64.5886 75.5373L56.416 51.1351L59.9401 44.625L68.1122 69.0268Z" fill="url(#paint13_linear_1440_31372)"/>
<path d="M64.3565 68.2414L60.833 74.7515L56.6504 73.8694L60.1744 67.3594L64.3565 68.2414Z" fill="#255D3C"/>
<path d="M60.1714 67.4512L56.6479 73.9612L32.5352 45.6498L36.3945 39.3281L60.1714 67.4512Z" fill="url(#paint14_linear_1440_31372)"/>
<path d="M60.0265 72.3718L56.5029 78.8814L56.6479 73.9632L60.1715 67.4531L60.0265 72.3718Z" fill="url(#paint15_linear_1440_31372)"/>
<path d="M77.4502 80.2718L73.9261 84.743L67.1104 83.4786L70.6339 79.0078L77.4502 80.2718Z" fill="url(#paint16_linear_1440_31372)"/>
<path d="M65.9969 78.3283L62.4734 82.7995L55.8594 81.5415L59.3834 77.0703L65.9969 78.3283Z" fill="url(#paint17_linear_1440_31372)"/>
<path d="M66.1616 89.5278L62.638 92.7753L62.4736 82.7993L65.9972 78.3281L66.1616 89.5278Z" fill="url(#paint18_linear_1440_31372)"/>
<path d="M72.6884 90.3575L67.5338 93.6049L62.6377 92.7709L66.1613 89.5234L72.6884 90.3575Z" fill="url(#paint19_linear_1440_31372)"/>
<path d="M78.0964 97.6613L74.5728 104.171L73.9263 84.7446L77.4503 80.2734L78.0964 97.6613Z" fill="url(#paint20_linear_1440_31372)"/>
<path d="M89.5075 110.227L85.9834 113.067L80.2944 112.871L83.8185 110.031L89.5075 110.227Z" fill="#4353FF"/>
<path d="M72.5678 109.46L69.0443 115.97L68.479 103.409L72.003 96.8984L72.5678 109.46Z" fill="url(#paint21_linear_1440_31372)"/>
<path d="M84.1797 116.09L80.6557 118.114L50.564 115.883L53.6798 113.859L84.1797 116.09Z" fill="url(#paint22_linear_1440_31372)"/>
<path d="M54.4953 113.855L50.564 115.879L50.9837 77.8534L54.5069 71.3438L54.4953 113.855Z" fill="url(#paint23_linear_1440_31372)"/>
<path d="M63.9782 29.6128C63.7159 29.4687 63.4411 29.3929 63.1857 29.3819C62.771 29.3629 62.409 29.5139 62.2427 29.8164C61.9749 30.3078 62.3125 31.0102 63.0038 31.3889C63.2652 31.5329 63.5399 31.6082 63.7939 31.6198C64.2082 31.6387 64.5693 31.4868 64.7355 31.182C65.0076 30.6938 64.6658 29.991 63.9782 29.6128ZM100.583 56.7018C100.537 56.4635 100.488 56.2285 100.437 55.9929C100.45 55.7542 100.397 55.509 100.277 55.2831C97.6276 44.065 90.4106 36.1307 83.809 31.0042C76.9217 25.6537 70.6619 23.2828 70.4878 23.2158C65.8254 21.7574 61.7551 21.032 58.1959 20.8722C57.9392 20.8606 57.6842 20.8518 57.4321 20.8463C47.5264 20.5942 41.7926 24.9832 38.8047 29.3879C36.5308 32.7096 35.3144 36.6414 35.0331 38.1063C35.0378 38.1021 35.0465 38.0906 35.0525 38.0846C34.9777 38.3811 35.005 38.708 35.1624 39.0142C35.2266 39.1403 35.3116 39.2483 35.4049 39.3481L59.7628 67.8604L59.7656 67.7639L63.9482 68.646L38.9876 39.1241C40.2871 38.8133 42.1634 38.5076 44.3875 38.5589C44.5302 38.5626 44.6747 38.5676 44.8206 38.5746C48.982 38.7607 54.2424 40.1507 59.5319 45.0361L67.7045 69.438L63.9486 68.646L59.7633 67.8604L59.6187 72.7782L54.0997 71.7534L53.2726 114.265L83.7716 116.495L83.4105 110.438L89.0999 110.633L85.0319 73.0936L84.6758 73.0183L100.233 57.8526C100.537 57.5575 100.669 57.1258 100.583 56.7018ZM35.7826 37.2326C35.7822 37.233 35.7822 37.233 35.7817 37.233C35.7817 37.233 35.7822 37.2326 35.7826 37.2326C35.8039 37.2247 35.9415 37.1674 36.1669 37.0852C35.941 37.1679 35.8034 37.2247 35.7826 37.2326ZM62.0534 41.5624C61.9938 40.0246 62.2367 38.4559 62.5036 37.2907C62.6329 36.7061 62.7715 36.2226 62.8717 35.8905C62.9239 35.7224 62.9654 35.5959 62.9932 35.5105C63.0213 35.4246 63.0352 35.3946 63.0319 35.3941C63.2822 34.7009 62.8934 33.9122 62.1596 33.6295C62.0017 33.5681 61.8414 33.5344 61.6839 33.5279C61.1071 33.5021 60.571 33.8235 60.3738 34.3657C60.353 34.4465 59.1597 37.6496 59.2364 41.2932C54.1376 37.3729 48.9866 36.0568 44.8673 35.8725C44.6715 35.8638 44.478 35.8573 44.2873 35.8531C42.0032 35.8033 40.059 36.0762 38.608 36.3925C39.1035 34.7374 40.0303 32.4284 41.703 30.2514C44.4706 26.6761 49.084 23.3825 57.5328 23.5493C57.7632 23.5543 57.9964 23.5622 58.2329 23.5728C60.6947 23.6832 63.4762 24.0937 66.6105 24.889C65.8513 25.4427 65.0293 26.1769 64.1846 27.1564C63.7006 27.712 63.8022 28.5668 64.4118 29.066C64.6732 29.283 64.9914 29.398 65.3031 29.4123C65.3128 29.4123 65.3239 29.4133 65.334 29.4133C65.7317 29.4206 66.1196 29.2678 66.386 28.9639C67.8901 27.2488 69.0742 26.5501 69.9733 26.1566C70.1946 26.0606 70.3977 25.982 70.5843 25.9119C70.3977 25.982 70.1941 26.0606 69.9987 26.1843C69.9992 26.1848 70.0098 26.1986 70.0542 26.2457C70.7242 26.9569 76.8025 33.715 79.3831 44.5295C79.5369 45.1687 80.1257 45.6222 80.8027 45.6527C80.8932 45.6563 80.9837 45.6499 81.0733 45.6333C81.8274 45.5072 82.298 44.8089 82.1221 44.0719C80.4637 37.1527 77.4902 31.817 75.1931 28.4592C77.5534 29.7952 80.4346 31.6452 83.3463 34.0498C88.3624 38.1936 93.4525 43.9384 96.2727 51.5499C92.8886 49.0599 89.674 48.1386 87.05 48.0213C86.9313 48.0157 86.8135 48.012 86.6976 48.0102C84.3087 47.9621 82.4767 48.5195 81.4137 48.9573C76.2267 44.0026 71.0881 42.4473 67.2275 42.2741C67.0769 42.2672 66.9277 42.263 66.7813 42.2602C64.8538 42.2196 63.2762 42.4934 62.1656 42.7853C62.1046 42.3863 62.0686 41.9762 62.0534 41.5624ZM62.5997 45.5289C63.4794 45.2587 64.9803 44.9193 66.8811 44.9623C66.9725 44.9646 67.0649 44.9683 67.1582 44.9724C70.4268 45.1188 74.8186 46.3209 79.6389 50.9625L74.6611 70.906L70.8272 70.0965L62.5997 45.5289ZM72.1605 109.864L65.8185 109.191L65.3955 96.4901L58.9967 95.6205L58.9764 77.4757L65.5894 78.7336L65.7538 89.9333L72.2805 90.7674L71.8575 79.7043L77.0427 80.6815L77.6887 98.069L71.5952 97.3033L72.1605 109.864ZM99.0449 57.1923C98.6635 57.1756 98.2843 57.0094 98.0072 56.7078C97.8973 56.5891 97.787 56.4732 97.6817 56.3772L81.3351 72.3136L77.4463 71.493L82.4195 51.5555C83.1403 51.2317 84.7165 50.6642 86.7983 50.7159C86.8662 50.7177 86.9345 50.7205 87.0033 50.7237C89.77 50.8475 93.458 51.9692 97.6775 56.3596C97.787 56.4741 97.8973 56.5901 98.0077 56.7083C98.2802 57.0057 98.6533 57.1696 99.0662 57.1918C99.0592 57.1918 99.0519 57.1927 99.0449 57.1923Z" fill="white"/>
<path d="M64.3859 29.2061C64.1236 29.0615 63.8489 28.9863 63.5935 28.9752C63.1792 28.9562 62.8167 29.1077 62.6509 29.4097C62.3826 29.9011 62.7202 30.6035 63.4115 30.9822C63.6734 31.1263 63.9477 31.2015 64.2017 31.2131C64.6159 31.232 64.9771 31.0801 65.1433 30.7753C65.4153 30.2867 65.074 29.5838 64.3859 29.2061ZM100.991 56.2951C100.944 56.0568 100.895 55.8213 100.845 55.5863C100.858 55.347 100.804 55.1018 100.684 54.8765C98.0359 43.6588 90.8183 35.724 84.2168 30.5975C77.3294 25.247 71.0701 22.8761 70.8956 22.8092C66.2332 21.3508 62.1628 20.6253 58.6041 20.466C58.3469 20.4544 58.092 20.4456 57.8403 20.4401C47.9341 20.1875 42.2003 24.5765 39.2125 28.9816C36.9381 32.303 35.7217 36.2352 35.4409 37.7001C35.4455 37.6955 35.4543 37.6844 35.4608 37.6779C35.3859 37.9744 35.4132 38.3013 35.5702 38.6075C35.6349 38.7331 35.7194 38.8417 35.8127 38.9414L60.171 67.4542L60.1738 67.3577L64.3559 68.2397L39.3953 38.7174C40.6944 38.4071 42.5712 38.1009 44.7952 38.1522C44.9379 38.1559 45.082 38.161 45.2284 38.1679C49.3893 38.3545 54.6497 39.7445 59.9397 44.6299L68.1118 69.0317L64.3559 68.2397L60.171 67.4542L60.026 72.3724L54.507 71.3472L53.6799 113.859L84.1794 116.089L83.8183 110.031L89.5072 110.227L85.4392 72.6869L85.0831 72.6121L100.64 57.4464C100.945 57.1509 101.076 56.7195 100.991 56.2951ZM36.1899 36.8259C36.2112 36.8176 36.3488 36.7608 36.5746 36.6786C36.3488 36.7612 36.2112 36.818 36.1899 36.8259ZM62.4611 41.1553C62.4016 39.6175 62.6449 38.0487 62.9114 36.8836C63.0407 36.299 63.1797 35.8154 63.2795 35.4834C63.3316 35.3153 63.3737 35.1888 63.4014 35.1033C63.4291 35.017 63.4429 34.987 63.4397 34.9865C63.6905 34.2933 63.3012 33.5046 62.5674 33.2219C62.4099 33.1605 62.2496 33.1273 62.0917 33.1204C61.5149 33.0945 60.9792 33.4159 60.7816 33.9576C60.7612 34.0384 59.5675 37.2415 59.6441 40.8851C54.5453 36.9653 49.3944 35.6487 45.275 35.4645C45.0792 35.4557 44.8857 35.4492 44.695 35.4455C42.4109 35.3957 40.4663 35.6691 39.0157 35.9854C39.5117 34.3303 40.4386 32.0213 42.1112 29.8443C44.8784 26.2699 49.4918 22.9763 57.9405 23.1426C58.1714 23.1477 58.4042 23.156 58.6406 23.1661C61.1025 23.2765 63.884 23.687 67.0182 24.4818C66.2595 25.036 65.437 25.7698 64.5924 26.7497C64.1084 27.3048 64.21 28.1601 64.8196 28.6593C65.081 28.8764 65.3992 28.9909 65.7113 29.0057C65.721 29.0057 65.7321 29.0061 65.7423 29.0061C66.1394 29.0135 66.5273 28.8607 66.7943 28.5568C68.2979 26.8421 69.482 26.1434 70.3816 25.7499C70.6023 25.6534 70.8055 25.5749 70.9921 25.5047C70.8055 25.5749 70.6019 25.6534 70.4065 25.7772C70.4065 25.7772 70.4176 25.7915 70.4619 25.8386C71.132 26.5493 77.2103 33.3078 79.7909 44.1224C79.9451 44.7615 80.5339 45.2155 81.2104 45.2455C81.301 45.2497 81.3915 45.2427 81.4815 45.2261C82.2352 45.1 82.7058 44.4023 82.5303 43.6652C80.871 36.746 77.8975 31.4103 75.6 28.0525C77.9603 29.3885 80.8415 31.2385 83.7536 33.6427C88.7693 37.7864 93.8593 43.5313 96.6795 51.1428C93.2954 48.6527 90.0808 47.7314 87.4568 47.6141C87.3381 47.6086 87.2204 47.6049 87.1045 47.603C84.7156 47.555 82.884 48.1119 81.8205 48.5502C76.6335 43.5955 71.4954 42.0401 67.6338 41.8669C67.4833 41.86 67.3346 41.8559 67.1877 41.8531C65.2606 41.8125 63.6831 42.0863 62.572 42.3782C62.5119 41.9796 62.4764 41.5695 62.4611 41.1553ZM63.0075 45.1222C63.8877 44.8521 65.3881 44.5126 67.2893 44.556C67.3808 44.5584 67.4727 44.562 67.5664 44.5662C70.8355 44.7121 75.2273 45.9147 80.0472 50.5558L75.0698 70.4994L71.2355 69.6903L63.0075 45.1222ZM72.5678 109.458L66.2258 108.784L65.8032 96.0834L59.4044 95.2133L59.3837 77.069L65.9972 78.327L66.1611 89.5267L72.6883 90.3607L72.2648 79.2977L77.45 80.2744L78.096 97.6623L72.0025 96.8962L72.5678 109.458ZM99.4527 56.7856C99.0717 56.769 98.6921 56.6027 98.415 56.3016C98.3056 56.1829 98.1947 56.067 98.0894 55.971L81.7429 71.9069L77.854 71.0868L82.8272 51.1492C83.5481 50.8255 85.1247 50.258 87.2061 50.3097C87.274 50.3115 87.3423 50.3148 87.4111 50.3175C90.1778 50.4413 93.8662 51.5635 98.0853 55.9534C98.1947 56.0675 98.3056 56.1834 98.4155 56.3021C98.6879 56.599 99.0615 56.7634 99.4744 56.7856C99.467 56.7851 99.4601 56.786 99.4527 56.7856Z" fill="#4353FF"/>
<rect x="57" y="74.8828" width="23.4706" height="36.8824" fill="#4353FF"/>
<g filter="url(#filter0_d_1440_31372)">
<path d="M77.9871 96.2661C78.0429 95.1471 77.7975 94.035 77.2782 93.0534C76.7588 92.0717 75.9858 91.2589 75.045 90.7052C75.0453 90.7005 75.0455 90.6967 75.0456 90.6928L74.9464 90.649L74.8294 90.5842L74.8286 90.6004C74.6075 90.5118 74.3762 90.4327 74.1228 90.3603C74.3251 90.3222 74.5168 90.28 74.698 90.2336L74.6975 90.2429L74.7283 90.2297L74.7976 90.2114C74.7974 90.2075 74.7976 90.2036 74.7981 90.1998C75.6121 89.8428 76.314 89.258 76.8245 88.5115C77.335 87.765 77.6337 86.8865 77.6868 85.9754C77.7399 85.0642 77.5454 84.1567 77.1252 83.3554C76.705 82.554 76.0758 81.8909 75.3089 81.4408C75.0512 81.263 74.7731 81.1187 74.4811 81.0113C73.6325 80.6963 72.3664 80.4969 70.6827 80.4131L65.3604 80.1484L65.1663 84.0498C66.0964 83.6775 67.0585 83.7797 68.0302 84.127C69.9497 84.8166 72.0226 85.4463 74.4068 85.3606C74.4263 85.3616 74.374 85.4001 74.3015 85.454C74.202 85.5287 74.1108 85.6146 74.0295 85.7099C73.1059 86.7668 71.8423 86.8803 70.4687 86.8018C69.7531 86.7608 68.7602 86.0234 68.4024 86.9173C68.223 87.3658 68.9756 88.235 69.4347 88.8256C70.5363 90.2472 71.1602 91.7717 70.8887 93.5576C70.6151 95.3582 70.7477 95.4875 72.648 95.2045C72.8925 95.1685 73.098 95.0863 73.3745 95.0714C73.9246 95.042 74.7705 94.9855 75.5651 95.0708C73.5284 96.4187 71.7029 98.4923 69.0758 96.904L68.8778 100.886L68.8431 101.583L70.4833 101.665C72.2169 101.751 73.4804 101.731 74.2738 101.605L74.282 101.605L74.2949 101.602C74.7111 101.479 75.0983 101.268 75.4319 100.983C76.1815 100.453 76.8025 99.7519 77.2459 98.9334C77.6893 98.1149 77.943 97.2018 77.9871 96.2661Z" fill="white"/>
</g>
<defs>
<filter id="filter0_d_1440_31372" x="61.1665" y="80.1484" width="16.8281" height="24.5703" filterUnits="userSpaceOnUse" color-interpolation-filters="sRGB">
<feFlood flood-opacity="0" result="BackgroundImageFix"/>
<feColorMatrix in="SourceAlpha" type="matrix" values="0 0 0 0 0 0 0 0 0 0 0 0 0 0 0 0 0 0 127 0" result="hardAlpha"/>
<feOffset dx="-3" dy="2"/>
<feGaussianBlur stdDeviation="0.5"/>
<feComposite in2="hardAlpha" operator="out"/>
<feColorMatrix type="matrix" values="0 0 0 0 0.183066 0 0 0 0 0.250465 0 0 0 0 0.975 0 0 0 1 0"/>
<feBlend mode="normal" in2="BackgroundImageFix" result="effect1_dropShadow_1440_31372"/>
<feBlend mode="normal" in="SourceGraphic" in2="effect1_dropShadow_1440_31372" result="shape"/>
</filter>
<linearGradient id="paint0_linear_1440_31372" x1="63.1404" y1="37.108" x2="47.2353" y2="29.2234" gradientUnits="userSpaceOnUse">
<stop stop-color="#278CFF"/>
<stop offset="0.5275" stop-color="#3176FF"/>
<stop offset="1" stop-color="#3A5EF7"/>
</linearGradient>
<linearGradient id="paint1_linear_1440_31372" x1="69.0763" y1="30.8731" x2="64.0466" y2="29.3777" gradientUnits="userSpaceOnUse">
<stop stop-color="#278AFF"/>
<stop offset="0.5275" stop-color="#3470FF"/>
<stop offset="1" stop-color="#3A5CF6"/>
</linearGradient>
<linearGradient id="paint2_linear_1440_31372" x1="89.8002" y1="52.6106" x2="79.1967" y2="32.8312" gradientUnits="userSpaceOnUse">
<stop stop-color="#2988FF"/>
<stop offset="0.5275" stop-color="#3470FF"/>
<stop offset="1" stop-color="#4353FF"/>
</linearGradient>
<linearGradient id="paint3_linear_1440_31372" x1="58.4132" y1="31.94" x2="63.3064" y2="34.5224" gradientUnits="userSpaceOnUse">
<stop stop-color="#2392FF"/>
<stop offset="0.5275" stop-color="#2A85FF"/>
<stop offset="1" stop-color="#3E5EFF"/>
</linearGradient>
<linearGradient id="paint4_linear_1440_31372" x1="67.667" y1="32.3348" x2="78.1342" y2="43.414" gradientUnits="userSpaceOnUse">
<stop stop-color="#278AFF"/>
<stop offset="0.552083" stop-color="#2E7DFE"/>
<stop offset="1" stop-color="#4353FF"/>
</linearGradient>
<linearGradient id="paint5_linear_1440_31372" x1="95.6293" y1="59.7902" x2="82.9868" y2="53.129" gradientUnits="userSpaceOnUse">
<stop stop-color="#278BFF"/>
<stop offset="0.5275" stop-color="#3373FF"/>
<stop offset="1" stop-color="#3A5BF5"/>
</linearGradient>
<linearGradient id="paint6_linear_1440_31372" x1="78.2571" y1="56.3625" x2="64.1191" y2="47.1186" gradientUnits="userSpaceOnUse">
<stop stop-color="#278BFF"/>
<stop offset="0.5275" stop-color="#356EFF"/>
<stop offset="1" stop-color="#3A5BF5"/>
</linearGradient>
<linearGradient id="paint7_linear_1440_31372" x1="33.2575" y1="35.7854" x2="36.9718" y2="38.555" gradientUnits="userSpaceOnUse">
<stop stop-color="#6BC189"/>
<stop offset="0.5275" stop-color="#6ADB80"/>
<stop offset="1" stop-color="#217B3D"/>
</linearGradient>
<linearGradient id="paint8_linear_1440_31372" x1="37.4833" y1="40.3434" x2="63.2956" y2="70.1375" gradientUnits="userSpaceOnUse">
<stop stop-color="#2986FF"/>
<stop offset="0.5275" stop-color="#366CFF"/>
<stop offset="1" stop-color="#3B58F3"/>
</linearGradient>
<linearGradient id="paint9_linear_1440_31372" x1="58.2079" y1="51.7724" x2="39.5837" y2="40.3532" gradientUnits="userSpaceOnUse">
<stop stop-color="#2986FF"/>
<stop offset="0.53125" stop-color="#3373FF"/>
<stop offset="1" stop-color="#3B59F4"/>
</linearGradient>
<linearGradient id="paint10_linear_1440_31372" x1="34.9941" y1="42.4169" x2="60.5503" y2="71.9154" gradientUnits="userSpaceOnUse">
<stop stop-color="#278AFF"/>
<stop offset="0.5275" stop-color="#356EFF"/>
<stop offset="1" stop-color="#3B59F4"/>
</linearGradient>
<linearGradient id="paint11_linear_1440_31372" x1="96.6197" y1="62.6599" x2="84.7928" y2="73.3993" gradientUnits="userSpaceOnUse">
<stop stop-color="#278CFF"/>
<stop offset="0.5275" stop-color="#356EFF"/>
<stop offset="1" stop-color="#3A5DF7"/>
</linearGradient>
<linearGradient id="paint12_linear_1440_31372" x1="71.4428" y1="47.5655" x2="76.8804" y2="67.821" gradientUnits="userSpaceOnUse">
<stop stop-color="#2889FF"/>
<stop offset="0.5275" stop-color="#366DFF"/>
<stop offset="1" stop-color="#3A5CF6"/>
</linearGradient>
<linearGradient id="paint13_linear_1440_31372" x1="53.7071" y1="47.9947" x2="64.5824" y2="63.356" gradientUnits="userSpaceOnUse">
<stop stop-color="#278AFF"/>
<stop offset="0.5275" stop-color="#4353FF"/>
<stop offset="1" stop-color="#4353FF"/>
</linearGradient>
<linearGradient id="paint14_linear_1440_31372" x1="34.5345" y1="42.8087" x2="60.0917" y2="72.3082" gradientUnits="userSpaceOnUse">
<stop stop-color="#268DFF"/>
<stop offset="0.5275" stop-color="#376AFF"/>
<stop offset="1" stop-color="#3C52EF"/>
</linearGradient>
<linearGradient id="paint15_linear_1440_31372" x1="50.3961" y1="65.7027" x2="57.1926" y2="72.0915" gradientUnits="userSpaceOnUse">
<stop stop-color="#278BFF"/>
<stop offset="0.5275" stop-color="#3274FF"/>
<stop offset="1" stop-color="#4353FF"/>
</linearGradient>
<linearGradient id="paint16_linear_1440_31372" x1="74.9218" y1="74.8058" x2="70.2999" y2="87.1762" gradientUnits="userSpaceOnUse">
<stop stop-color="#278CFF"/>
<stop offset="0.5275" stop-color="#3373FF"/>
<stop offset="1" stop-color="#3A5AF4"/>
</linearGradient>
<linearGradient id="paint17_linear_1440_31372" x1="64.3226" y1="70.8497" x2="59.7006" y2="83.2205" gradientUnits="userSpaceOnUse">
<stop stop-color="#2987FF"/>
<stop offset="0.5275" stop-color="#356DFF"/>
<stop offset="0.9998" stop-color="#395FF7"/>
<stop offset="0.9999" stop-color="#3A5DF6"/>
</linearGradient>
<linearGradient id="paint18_linear_1440_31372" x1="68.6471" y1="84.2717" x2="58.9952" y2="87.1265" gradientUnits="userSpaceOnUse">
<stop stop-color="#2888FF"/>
<stop offset="0.5275" stop-color="#356EFF"/>
<stop offset="1" stop-color="#3A5BF5"/>
</linearGradient>
<linearGradient id="paint19_linear_1440_31372" x1="69.8473" y1="87.7421" x2="66.0408" y2="94.4035" gradientUnits="userSpaceOnUse">
<stop stop-color="#278BFF"/>
<stop offset="0.5275" stop-color="#356FFF"/>
<stop offset="1" stop-color="#3A5AF4"/>
</linearGradient>
<linearGradient id="paint20_linear_1440_31372" x1="80.5222" y1="91.9849" x2="72.7728" y2="92.3928" gradientUnits="userSpaceOnUse">
<stop stop-color="#2987FF"/>
<stop offset="0.5275" stop-color="#366DFF"/>
<stop offset="1" stop-color="#4353FF"/>
</linearGradient>
<linearGradient id="paint21_linear_1440_31372" x1="73.1204" y1="106.321" x2="66.8673" y2="106.593" gradientUnits="userSpaceOnUse">
<stop stop-color="#2C81FF"/>
<stop offset="0.5275" stop-color="#3371FD"/>
<stop offset="1" stop-color="#3A5EF7"/>
</linearGradient>
<linearGradient id="paint22_linear_1440_31372" x1="67.372" y1="101.03" x2="67.372" y2="117.019" gradientUnits="userSpaceOnUse">
<stop stop-color="#278BFF"/>
<stop offset="0.5275" stop-color="#3373FF"/>
<stop offset="1" stop-color="#3B59F4"/>
</linearGradient>
<linearGradient id="paint23_linear_1440_31372" x1="49.0858" y1="71.9254" x2="55.4601" y2="111.993" gradientUnits="userSpaceOnUse">
<stop stop-color="#6BC189"/>
<stop offset="0.0001" stop-color="#278BFF"/>
<stop offset="0.5275" stop-color="#3372FF"/>
<stop offset="1" stop-color="#3A5AF5"/>
</linearGradient>
</defs>
</svg>
