<svg width="91" height="88" viewBox="0 0 91 88" fill="none" xmlns="http://www.w3.org/2000/svg">
<g filter="url(#filter0_f_1946_12467)">
<circle cx="58.3531" cy="28.3214" r="8.03286" transform="rotate(-13.6016 58.3531 28.3214)" stroke="black" stroke-width="3"/>
</g>
<circle cx="57.355" cy="28.3214" r="8.03286" transform="rotate(-13.6016 57.355 28.3214)" stroke="#0E284A" stroke-width="3"/>
<circle cx="55.5464" cy="27.0061" r="8.03286" transform="rotate(-13.6016 55.5464 27.0061)" stroke="#327CBF" stroke-width="3"/>
<g filter="url(#filter1_f_1946_12467)">
<path d="M9 50.1609L30.0169 36L71 80" stroke="black" stroke-width="6"/>
</g>
<path d="M9 49.1609L30.0169 35L71 79" stroke="#0E284A" stroke-width="6"/>
<path d="M9 47.1609L30.0169 33L71 77" stroke="#327CBF" stroke-width="6"/>
<g filter="url(#filter2_f_1946_12467)">
<path fill-rule="evenodd" clip-rule="evenodd" d="M26.4341 9C24.5026 9 22.8471 10.3801 22.4994 12.2799L10.1977 79.5H72.5161L82.4235 13.5946C82.7871 11.1758 80.9139 9 78.4679 9H26.4341ZM16.5974 11.1998C17.4666 6.45019 21.6055 3 26.4341 3H78.4679C84.5829 3 89.2658 8.43954 88.3568 14.4866L77.6816 85.5H3L16.5974 11.1998Z" fill="black"/>
</g>
<path fill-rule="evenodd" clip-rule="evenodd" d="M25.4341 8C23.5026 8 21.8471 9.38008 21.4994 11.2799L9.19769 78.5H71.5161L81.4235 12.5946C81.7871 10.1758 79.9139 8 77.4679 8H25.4341ZM15.5974 10.1998C16.4666 5.45019 20.6055 2 25.4341 2H77.4679C83.5829 2 88.2658 7.43954 87.3568 13.4866L76.6816 84.5H2L15.5974 10.1998Z" fill="#0E284A"/>
<path d="M0 82.5H2.5L3.5 84.5H1.5L0 82.5Z" fill="#0E284A"/>
<path fill-rule="evenodd" clip-rule="evenodd" d="M23.4341 6C21.5026 6 19.8471 7.38008 19.4994 9.27993L7.19769 76.5H69.5161L79.4235 10.5946C79.7871 8.17582 77.9139 6 75.4679 6H23.4341ZM13.5974 8.19983C14.4666 3.45019 18.6055 0 23.4341 0H75.4679C81.5829 0 86.2658 5.43954 85.3568 11.4866L74.6816 82.5H0L13.5974 8.19983Z" fill="#327CBF"/>
<defs>
<filter id="filter0_f_1946_12467" x="46.8184" y="16.7863" width="23.0703" height="23.0701" filterUnits="userSpaceOnUse" color-interpolation-filters="sRGB">
<feFlood flood-opacity="0" result="BackgroundImageFix"/>
<feBlend mode="normal" in="SourceGraphic" in2="BackgroundImageFix" result="shape"/>
<feGaussianBlur stdDeviation="1" result="effect1_foregroundBlur_1946_12467"/>
</filter>
<filter id="filter1_f_1946_12467" x="5.32422" y="30.0802" width="69.8711" height="53.9645" filterUnits="userSpaceOnUse" color-interpolation-filters="sRGB">
<feFlood flood-opacity="0" result="BackgroundImageFix"/>
<feBlend mode="normal" in="SourceGraphic" in2="BackgroundImageFix" result="shape"/>
<feGaussianBlur stdDeviation="1" result="effect1_foregroundBlur_1946_12467"/>
</filter>
<filter id="filter2_f_1946_12467" x="1" y="1" width="89.4707" height="86.5" filterUnits="userSpaceOnUse" color-interpolation-filters="sRGB">
<feFlood flood-opacity="0" result="BackgroundImageFix"/>
<feBlend mode="normal" in="SourceGraphic" in2="BackgroundImageFix" result="shape"/>
<feGaussianBlur stdDeviation="1" result="effect1_foregroundBlur_1946_12467"/>
</filter>
</defs>
</svg>
