<svg width="111" height="83" viewBox="0 0 111 83" fill="none" xmlns="http://www.w3.org/2000/svg">
<path d="M109.55 48.5766C109.55 65.4573 95.8658 79.1418 78.9851 79.1418C62.1044 79.1418 48.4199 65.4573 48.4199 48.5766C48.4199 31.6959 62.1044 18.0114 78.9851 18.0114C95.8658 18.0114 109.55 31.6959 109.55 48.5766Z" fill="#1D1D1D"/>
<g filter="url(#filter0_f_1946_12487)">
<path fill-rule="evenodd" clip-rule="evenodd" d="M78.5 77.9114C93.5796 77.9114 105.872 65.6761 105.872 50.5C105.872 35.3239 93.5796 23.0886 78.5 23.0886C63.4204 23.0886 51.1282 35.3239 51.1282 50.5C51.1282 65.6761 63.4204 77.9114 78.5 77.9114ZM78.5 81C95.3447 81 109 67.3447 109 50.5C109 33.6553 95.3447 20 78.5 20C61.6553 20 48 33.6553 48 50.5C48 67.3447 61.6553 81 78.5 81Z" fill="black"/>
</g>
<path fill-rule="evenodd" clip-rule="evenodd" d="M78.2719 78.1039C93.7814 78.1039 106.424 65.3585 106.424 49.5496C106.424 33.7407 93.7814 20.9952 78.2719 20.9952C62.7624 20.9952 50.1197 33.7407 50.1197 49.5496C50.1197 65.3585 62.7624 78.1039 78.2719 78.1039ZM78.2719 81.3213C95.5968 81.3213 109.641 67.0966 109.641 49.5496C109.641 32.0025 95.5968 17.7778 78.2719 17.7778C60.947 17.7778 46.9023 32.0025 46.9023 49.5496C46.9023 67.0966 60.947 81.3213 78.2719 81.3213Z" fill="#0E284A"/>
<path fill-rule="evenodd" clip-rule="evenodd" d="M78.4237 78.0218C94.6381 78.0218 107.782 64.8774 107.782 48.6631C107.782 32.4487 94.6381 19.3044 78.4237 19.3044C62.2094 19.3044 49.065 32.4487 49.065 48.6631C49.065 64.8774 62.2094 78.0218 78.4237 78.0218ZM78.4237 81.2392C96.415 81.2392 111 66.6543 111 48.6631C111 30.6718 96.415 16.087 78.4237 16.087C60.4325 16.087 45.8477 30.6718 45.8477 48.6631C45.8477 66.6543 60.4325 81.2392 78.4237 81.2392Z" fill="#327CBF"/>
<g filter="url(#filter1_d_1946_12487)">
<path fill-rule="evenodd" clip-rule="evenodd" d="M90.9388 59.442C87.733 63.6464 83.7293 65.9593 79.3195 66.4485C72.1561 67.2431 67.244 63.5444 65.5653 61.383L68.1478 58.4929C69.1912 59.8362 73.3512 63.3025 78.9979 62.6761C82.2463 62.3157 85.6613 60.525 88.291 57.076L90.9388 59.442Z" fill="#327CBF"/>
</g>
<path d="M63.5425 32.1739C63.5425 49.0546 49.858 62.7391 32.9773 62.7391C16.0966 62.7391 2.41211 49.0546 2.41211 32.1739C2.41211 15.2932 16.0966 1.6087 32.9773 1.6087C49.858 1.6087 63.5425 15.2932 63.5425 32.1739Z" fill="#1D1D1D"/>
<g filter="url(#filter2_f_1946_12487)">
<path fill-rule="evenodd" clip-rule="evenodd" d="M33 61.9114C48.3268 61.9114 60.8205 49.6761 60.8205 34.5C60.8205 19.3239 48.3268 7.08861 33 7.08861C17.6732 7.08861 5.17949 19.3239 5.17949 34.5C5.17949 49.6761 17.6732 61.9114 33 61.9114ZM33 65C50.1208 65 64 51.3447 64 34.5C64 17.6553 50.1208 4 33 4C15.8792 4 2 17.6553 2 34.5C2 51.3447 15.8792 65 33 65Z" fill="black"/>
</g>
<g filter="url(#filter3_d_1946_12487)">
<path fill-rule="evenodd" clip-rule="evenodd" d="M49.0428 33.8678C48.9437 39.1541 47.0825 43.3867 43.8156 46.3888C38.5086 51.2655 32.3602 51.1872 29.7284 50.4369L30.1021 46.5791C31.7378 47.0454 37.1423 47.3809 41.3256 43.5368C43.7322 41.3253 45.4273 37.8619 45.5086 33.5255L49.0428 33.8678Z" fill="#327CBF"/>
</g>
<path fill-rule="evenodd" clip-rule="evenodd" d="M32.9789 61.9348C48.4884 61.9348 61.1311 49.1893 61.1311 33.3804C61.1311 17.5715 48.4884 4.8261 32.9789 4.8261C17.4694 4.8261 4.82677 17.5715 4.82677 33.3804C4.82677 49.1893 17.4694 61.9348 32.9789 61.9348ZM32.9789 65.1522C50.3039 65.1522 64.3485 50.9275 64.3485 33.3804C64.3485 15.8334 50.3039 1.6087 32.9789 1.6087C15.654 1.6087 1.60938 15.8334 1.60938 33.3804C1.60938 50.9275 15.654 65.1522 32.9789 65.1522Z" fill="#0E284A"/>
<path fill-rule="evenodd" clip-rule="evenodd" d="M32.5761 61.9348C48.7905 61.9348 61.9348 48.7905 61.9348 32.5761C61.9348 16.3617 48.7905 3.21739 32.5761 3.21739C16.3617 3.21739 3.21739 16.3617 3.21739 32.5761C3.21739 48.7905 16.3617 61.9348 32.5761 61.9348ZM32.5761 65.1522C50.5674 65.1522 65.1522 50.5674 65.1522 32.5761C65.1522 14.5848 50.5674 0 32.5761 0C14.5848 0 0 14.5848 0 32.5761C0 50.5674 14.5848 65.1522 32.5761 65.1522Z" fill="#327CBF"/>
<defs>
<filter id="filter0_f_1946_12487" x="46" y="18" width="65" height="65" filterUnits="userSpaceOnUse" color-interpolation-filters="sRGB">
<feFlood flood-opacity="0" result="BackgroundImageFix"/>
<feBlend mode="normal" in="SourceGraphic" in2="BackgroundImageFix" result="shape"/>
<feGaussianBlur stdDeviation="1" result="effect1_foregroundBlur_1946_12487"/>
</filter>
<filter id="filter1_d_1946_12487" x="60.5645" y="54.076" width="37.375" height="21.4825" filterUnits="userSpaceOnUse" color-interpolation-filters="sRGB">
<feFlood flood-opacity="0" result="BackgroundImageFix"/>
<feColorMatrix in="SourceAlpha" type="matrix" values="0 0 0 0 0 0 0 0 0 0 0 0 0 0 0 0 0 0 127 0" result="hardAlpha"/>
<feOffset dx="1" dy="3"/>
<feGaussianBlur stdDeviation="3"/>
<feComposite in2="hardAlpha" operator="out"/>
<feColorMatrix type="matrix" values="0 0 0 0 0 0 0 0 0 0 0 0 0 0 0 0 0 0 0.75 0"/>
<feBlend mode="normal" in2="BackgroundImageFix" result="effect1_dropShadow_1946_12487"/>
<feBlend mode="normal" in="SourceGraphic" in2="effect1_dropShadow_1946_12487" result="shape"/>
</filter>
<filter id="filter2_f_1946_12487" x="0" y="2" width="66" height="65" filterUnits="userSpaceOnUse" color-interpolation-filters="sRGB">
<feFlood flood-opacity="0" result="BackgroundImageFix"/>
<feBlend mode="normal" in="SourceGraphic" in2="BackgroundImageFix" result="shape"/>
<feGaussianBlur stdDeviation="1" result="effect1_foregroundBlur_1946_12487"/>
</filter>
<filter id="filter3_d_1946_12487" x="24.7285" y="30.5255" width="31.3145" height="29.2902" filterUnits="userSpaceOnUse" color-interpolation-filters="sRGB">
<feFlood flood-opacity="0" result="BackgroundImageFix"/>
<feColorMatrix in="SourceAlpha" type="matrix" values="0 0 0 0 0 0 0 0 0 0 0 0 0 0 0 0 0 0 127 0" result="hardAlpha"/>
<feOffset dx="1" dy="3"/>
<feGaussianBlur stdDeviation="3"/>
<feComposite in2="hardAlpha" operator="out"/>
<feColorMatrix type="matrix" values="0 0 0 0 0 0 0 0 0 0 0 0 0 0 0 0 0 0 0.75 0"/>
<feBlend mode="normal" in2="BackgroundImageFix" result="effect1_dropShadow_1946_12487"/>
<feBlend mode="normal" in="SourceGraphic" in2="effect1_dropShadow_1946_12487" result="shape"/>
</filter>
</defs>
</svg>
