<svg width="22" height="18" viewBox="0 0 22 18" fill="none" xmlns="http://www.w3.org/2000/svg">
<path d="M20.6169 1.00897C19.763 1.61128 18.8176 2.07195 17.8171 2.37324C17.28 1.75576 16.5663 1.3181 15.7725 1.11947C14.9786 0.920833 14.1429 0.970799 13.3784 1.26261C12.6138 1.55442 11.9573 2.07399 11.4977 2.75105C11.0381 3.42812 10.7975 4.23001 10.8085 5.04827V5.93995C9.24146 5.98058 7.68873 5.63305 6.28855 4.92829C4.88838 4.22354 3.68424 3.18345 2.78336 1.90065C2.78336 1.90065 -0.783358 9.92575 7.24175 13.4925C5.40536 14.739 3.21775 15.364 1 15.2758C9.02511 19.7342 18.8336 15.2758 18.8336 5.02152C18.8328 4.77315 18.8089 4.52539 18.7622 4.28143C19.6723 3.38395 20.3145 2.25082 20.6169 1.00897V1.00897Z" stroke="white" stroke-width="0.8" stroke-linecap="round" stroke-linejoin="round"/>
</svg>
