<svg width="63" height="74" viewBox="0 0 63 74" fill="none" xmlns="http://www.w3.org/2000/svg">
<ellipse cx="1.98947" cy="27.2846" rx="1.98947" ry="2.07516" fill="url(#paint0_linear_1625_15355)"/>
<ellipse cx="61.011" cy="34.894" rx="1.98947" ry="2.07516" fill="url(#paint1_linear_1625_15355)"/>
<ellipse cx="5.30483" cy="42.5028" rx="1.32632" ry="1.38344" fill="url(#paint2_linear_1625_15355)"/>
<ellipse cx="56.3683" cy="15.5255" rx="1.32632" ry="1.38344" fill="url(#paint3_linear_1625_15355)"/>
<ellipse cx="9.28432" cy="13.4508" rx="1.32632" ry="1.38344" fill="url(#paint4_linear_1625_15355)"/>
<path d="M50.3289 40.5427C51.9085 42.578 55.0518 47.2883 53.4908 53.3361" stroke="#C4C4C4" stroke-width="2" stroke-linecap="round"/>
<path d="M53.83 55.953C53.9229 55.5653 54.053 54.5574 53.83 53.627" stroke="#C4C4C4" stroke-linecap="round"/>
<path d="M51.2049 53.6233C51.588 53.6207 52.5564 53.5015 53.3649 53.0448" stroke="#C4C4C4" stroke-linecap="round"/>
<path d="M52.0691 55.5716C52.3507 55.3006 52.9896 54.5323 53.2926 53.6268" stroke="#C4C4C4" stroke-linecap="round"/>
<rect width="1.11549" height="17.2026" rx="0.557746" transform="matrix(0.994614 0.103648 -0.0953453 0.995444 28.167 56.7605)" fill="#C4C4C4"/>
<rect width="1.1156" height="17.2011" rx="0.557799" transform="matrix(0.993441 -0.114349 0.105207 0.99445 37.3818 56.8906)" fill="#C4C4C4"/>
<ellipse cx="32.2188" cy="38.2156" rx="18.9551" ry="19.7715" fill="url(#paint5_linear_1625_15355)"/>
<ellipse cx="35.5645" cy="38.2156" rx="18.9551" ry="19.7715" fill="url(#paint6_linear_1625_15355)"/>
<ellipse cx="35.5635" cy="38.2158" rx="14.4951" ry="15.1194" fill="white"/>
<ellipse cx="35.5635" cy="38.2158" rx="14.4951" ry="15.1194" fill="url(#paint7_linear_1625_15355)"/>
<rect width="5.76892" height="1.15378" rx="0.576892" transform="matrix(0.692047 -0.721853 0.692047 0.721853 28.2412 37.0645)" fill="#1C1C1C"/>
<rect width="5.76892" height="1.15378" rx="0.576892" transform="matrix(-0.692047 -0.721853 0.692047 -0.721853 32.2334 37.8982)" fill="#1C1C1C"/>
<rect width="5.76892" height="1.15378" rx="0.576892" transform="matrix(0.692047 -0.721853 0.692047 0.721853 38.2764 37.0645)" fill="#1C1C1C"/>
<rect width="5.76892" height="1.15378" rx="0.576892" transform="matrix(-0.692047 -0.721853 0.692047 -0.721853 42.2686 37.8982)" fill="#1C1C1C"/>
<path d="M31.6611 45.192C32.962 43.4367 36.3442 40.9793 39.4662 45.192" stroke="#1C1C1C" stroke-width="2" stroke-linecap="round"/>
<path d="M17.9062 19.0261C18.7807 18.2864 20.2672 16.242 19.2179 13.9824C18.5621 12.5701 17.9062 10.3509 19.2179 9.14038" stroke="#C4C4C4" stroke-linecap="round"/>
<path d="M48.0117 19.0261C48.8861 18.2864 50.3726 16.242 49.3233 13.9824C48.6675 12.5701 48.0117 10.3509 49.3233 9.14038" stroke="#C4C4C4" stroke-linecap="round"/>
<path d="M32.959 13.7933C33.8334 12.836 35.3199 10.1903 34.2706 7.26612C33.6148 5.4385 32.959 2.56653 34.2706 1" stroke="#C4C4C4" stroke-linecap="round"/>
<path d="M15.5617 44.0327C13.9821 46.068 10.8388 50.7783 12.3999 56.8261" stroke="#C4C4C4" stroke-width="2" stroke-linecap="round"/>
<path d="M12.0606 59.443C11.9677 59.0553 11.8376 58.0474 12.0606 57.1169" stroke="#C4C4C4" stroke-linecap="round"/>
<path d="M14.6847 57.1133C14.3016 57.1107 13.3333 56.9915 12.5248 56.5348" stroke="#C4C4C4" stroke-linecap="round"/>
<path d="M13.8205 59.0615C13.5389 58.7906 12.9 58.0223 12.5971 57.1168" stroke="#C4C4C4" stroke-linecap="round"/>
<defs>
<linearGradient id="paint0_linear_1625_15355" x1="1.98947" y1="25.2095" x2="1.98947" y2="29.3598" gradientUnits="userSpaceOnUse">
<stop stop-color="#C4C4C4"/>
<stop offset="1" stop-color="#868686"/>
</linearGradient>
<linearGradient id="paint1_linear_1625_15355" x1="61.011" y1="32.8188" x2="61.011" y2="36.9692" gradientUnits="userSpaceOnUse">
<stop stop-color="#C4C4C4"/>
<stop offset="1" stop-color="#868686"/>
</linearGradient>
<linearGradient id="paint2_linear_1625_15355" x1="5.30483" y1="41.1194" x2="5.30483" y2="43.8863" gradientUnits="userSpaceOnUse">
<stop stop-color="#C4C4C4"/>
<stop offset="1" stop-color="#868686"/>
</linearGradient>
<linearGradient id="paint3_linear_1625_15355" x1="56.3683" y1="14.1421" x2="56.3683" y2="16.909" gradientUnits="userSpaceOnUse">
<stop stop-color="#C4C4C4"/>
<stop offset="1" stop-color="#868686"/>
</linearGradient>
<linearGradient id="paint4_linear_1625_15355" x1="9.28432" y1="12.0674" x2="9.28432" y2="14.8343" gradientUnits="userSpaceOnUse">
<stop stop-color="#C4C4C4"/>
<stop offset="1" stop-color="#868686"/>
</linearGradient>
<linearGradient id="paint5_linear_1625_15355" x1="32.2188" y1="18.4441" x2="32.2188" y2="57.9871" gradientUnits="userSpaceOnUse">
<stop stop-color="#C4C4C4"/>
<stop offset="1" stop-color="#868686"/>
</linearGradient>
<linearGradient id="paint6_linear_1625_15355" x1="50.7183" y1="38.352" x2="21.5393" y2="38.352" gradientUnits="userSpaceOnUse">
<stop stop-color="#E2E2E2"/>
<stop offset="1" stop-color="#E2E2E2"/>
</linearGradient>
<linearGradient id="paint7_linear_1625_15355" x1="35.5635" y1="23.0964" x2="35.4558" y2="71.2087" gradientUnits="userSpaceOnUse">
<stop stop-color="white"/>
<stop offset="1" stop-color="#ADADAD"/>
</linearGradient>
</defs>
</svg>
