<svg width="33" height="32" viewBox="0 0 33 32" fill="none" xmlns="http://www.w3.org/2000/svg">
<path d="M16.75 32C25.5866 32 32.75 24.8366 32.75 16C32.75 7.16344 25.5866 0 16.75 0C7.91344 0 0.75 7.16344 0.75 16C0.75 24.8366 7.91344 32 16.75 32Z" fill="#E84142"/>
<path d="M22.394 16.4157C22.9483 15.4582 23.8428 15.4582 24.3971 16.4157L27.8491 22.4755C28.4034 23.433 27.9499 24.2141 26.8412 24.2141H19.8869C18.7908 24.2141 18.3373 23.433 18.879 22.4755L22.394 16.4157ZM15.7168 4.74956C16.2711 3.79208 17.153 3.79208 17.7073 4.74956L18.4758 6.13539L20.29 9.32279C20.731 10.2299 20.731 11.3007 20.29 12.2078L14.205 22.7527C13.6506 23.6094 12.731 24.1511 11.7105 24.2141H6.65852C5.54986 24.2141 5.09632 23.4456 5.65065 22.4755L15.7168 4.74956Z" fill="white"/>
</svg>
